<?xml version="1.0" encoding="UTF-8"?>
<svg xmlns="http://www.w3.org/2000/svg" viewBox="0 0 100 100" width="100" height="100">
  <defs>
    <linearGradient id="glassBase" x1="0%" y1="0%" x2="100%" y2="100%">
      <stop offset="0%" stop-color="#1C2130" stop-opacity="0.85" />
      <stop offset="100%" stop-color="#2A2F45" stop-opacity="0.85" />
    </linearGradient>

    <linearGradient id="glassHighlight" x1="0%" y1="0%" x2="100%" y2="100%">
      <stop offset="0%" stop-color="rgba(255, 255, 255, 0.3)" />
      <stop offset="100%" stop-color="rgba(255, 255, 255, 0.05)" />
    </linearGradient>

    <linearGradient id="neonGlowOutline" x1="0%" y1="0%" x2="100%" y2="100%">
      <stop offset="0%" stop-color="#80B3FF" />
      <stop offset="50%" stop-color="#C3A0F5" />
      <stop offset="100%" stop-color="#80B3FF" />
    </linearGradient>

    <filter id="dropshadow" x="-50%" y="-50%" width="200%" height="200%">
      <feGaussianBlur in="SourceAlpha" stdDeviation="4" />
      <feOffset dx="0" dy="2" />
      <feComponentTransfer>
        <feFuncA type="linear" slope="0.3"></feFuncA>
      </feComponentTransfer>
      <feMerge>
        <feMergeNode />
        <feMergeNode in="SourceGraphic" />
      </feMerge>
    </filter>
  </defs>

  <rect x="10" y="10" width="80" height="80" rx="20" ry="20" fill="url(#glassBase)" />

  <g filter="url(#dropshadow)">
    <path
      d="M 35 25 L 65 25 Q 75 25, 75 35 L 75 65 Q 75 75, 65 75 L 35 75 Q 25 75, 25 65 L 25 35 Q 25 25, 35 25 Z"
      stroke="url(#neonGlowOutline)"
      stroke-width="4"
      fill="rgba(255, 255, 255, 0.05)"
      stroke-linejoin="round"
    />
    <circle cx="50" cy="50" r="5" fill="#C3A0F5" opacity="0.8" />
    <circle cx="50" cy="50" r="3" fill="white" opacity="0.9" />
  </g>

  <rect x="10" y="10" width="80" height="80" rx="20" ry="20" stroke="rgba(255, 255, 255, 0.1)" stroke-width="1" fill="none" />

</svg>
